<svg id="Capa_1" xmlns="http://www.w3.org/2000/svg" viewBox="0 0 496 496"><style>.st0{fill:#f2c200}.st1{fill:#fff}</style><path class="st0" d="M424 128h-80c-13.2 0-24-10.8-24-24V56c0-13.2 10.8-24 24-24h80c13.2 0 24 10.8 24 24v48c0 13.2-10.8 24-24 24z"/><path class="st1" d="M456 208h-14.2v-22.3l12.7-28.5c14.9-5.8 25.6-20.3 25.6-37.2V40c0-22.1-17.9-40-40-40H328c-22.1 0-40 17.9-40 40v80c0 16.9 10.6 31.4 25.6 37.2l12.7 28.5V208h-23.7c-3.3-9.3-12.1-16-22.5-16h-64c-10.4 0-19.2 6.7-22.5 16H144v-24c0-13.2-10.8-24-24-24H56c-13.2 0-24 10.8-24 24v24.8C13.8 212.5 0 228.7 0 248v208c0 22.1 17.9 40 40 40h416c22.1 0 40-17.9 40-40V248c0-22.1-17.9-40-40-40zm0 16c13.2 0 24 10.8 24 24v16H352v-40h104zm24 88v136H352V312h96v-16h-96v-16h128v16h-16v16h16zm-288 80c0-30.9 25.1-56 56-56s56 25.1 56 56-25.1 56-56 56-56-25.1-56-56zm-8-64c0-8.8 7.2-16 16-16 8.7 0 15.8 7 16 15.6-7.9 3.9-14.9 9.2-20.8 15.6-6.6-2-11.2-8.1-11.2-15.2zm136 64c0-39.7-32.3-72-72-72-5.7 0-11.3.7-16.6 2-2.8-14.8-15.8-26-31.4-26-17.6 0-32 14.4-32 32 0 12.4 7 23.2 17.4 28.5-6 10.5-9.4 22.6-9.4 35.5 0 22.6 10.5 42.8 26.8 56H160V256h32v8c0 13.2 10.8 24 24 24h64c13.2 0 24-10.8 24-24v-8h32v192h-42.8c16.3-13.2 26.8-33.4 26.8-56zM192 240h-32v-16h32v16zm-48 56H16v-16h128v16zm195.4-120l-7.1-16h103.4l-7.1 16h-89.2zM304 40c0-13.2 10.8-24 24-24h112c13.2 0 24 10.8 24 24v80c0 13.2-10.8 24-24 24H328c-13.2 0-24-10.8-24-24V40zm38.2 152h83.6v16h-83.6v-16zm-6.2 32v16h-32v-16h32zm-128-8c0-4.4 3.6-8 8-8h64c4.4 0 8 3.6 8 8v48c0 4.4-3.6 8-8 8h-64c-4.4 0-8-3.6-8-8v-48zm-80-32v24h-16v-32h8c4.4 0 8 3.6 8 8zm-48 24v-32h16v32H80zm-32-24c0-4.4 3.6-8 8-8h8v32H48v-24zm-8 40h104v40H16v-16c0-13.2 10.8-24 24-24zm416 256H40c-10.4 0-19.2-6.7-22.5-16H32v-16H16V312h128v136H48v16h430.5c-3.3 9.3-12.1 16-22.5 16z"/><path class="st1" d="M384 104c17.9 0 32-10.5 32-24s-14.1-24-32-24-32 10.5-32 24 14.1 24 32 24zm0-32c9.8 0 16 4.7 16 8s-6.2 8-16 8-16-4.7-16-8 6.2-8 16-8zM248 352c-22.1 0-40 17.9-40 40s17.9 40 40 40 40-17.9 40-40-17.9-40-40-40zm0 64c-13.2 0-24-10.8-24-24s10.8-24 24-24 24 10.8 24 24-10.8 24-24 24zm0-152c17.9 0 32-10.5 32-24s-14.1-24-32-24-32 10.5-32 24 14.1 24 32 24zm0-32c9.8 0 16 4.7 16 8s-6.2 8-16 8-16-4.7-16-8 6.2-8 16-8z"/><path class="st0" d="M16 280h128v16H16zm336 0h128v16H352z"/></svg>