<?xml version="1.0" encoding="utf-8"?>
<!-- Generator: Adobe Illustrator 22.0.0, SVG Export Plug-In . SVG Version: 6.00 Build 0)  -->
<svg version="1.1" id="Capa_1" xmlns="http://www.w3.org/2000/svg" xmlns:xlink="http://www.w3.org/1999/xlink" x="0px" y="0px"
	 viewBox="0 0 496 496" style="enable-background:new 0 0 496 496;" xml:space="preserve">
<style type="text/css">
	.st0{fill:#F2C200;}
	.st1{fill:#FFFFFF;}
</style>
<g>
	<path class="st0" d="M424,128h-80c-13.2,0-24-10.8-24-24V56c0-13.2,10.8-24,24-24h80c13.2,0,24,10.8,24,24v48
		C448,117.2,437.2,128,424,128z"/>
	<g>
		<path class="st1" d="M456,208h-14.2v-22.3l12.7-28.5c14.9-5.8,25.6-20.3,25.6-37.2V40c0-22.1-17.9-40-40-40H328
			c-22.1,0-40,17.9-40,40v80c0,16.9,10.6,31.4,25.6,37.2l12.7,28.5V208h-23.7c-3.3-9.3-12.1-16-22.5-16h-64
			c-10.4,0-19.2,6.7-22.5,16H144v-24c0-13.2-10.8-24-24-24H56c-13.2,0-24,10.8-24,24v24.8C13.8,212.5,0,228.7,0,248v208
			c0,22.1,17.9,40,40,40h416c22.1,0,40-17.9,40-40V248C496,225.9,478.1,208,456,208z M456,224c13.2,0,24,10.8,24,24v16H352v-40h89.8
			H456z M480,312v136H352V312h96v-16h-96v-16h128v16h-16v16H480z M192,392c0-30.9,25.1-56,56-56s56,25.1,56,56s-25.1,56-56,56
			S192,422.9,192,392z M184,328c0-8.8,7.2-16,16-16c8.7,0,15.8,7,16,15.6c-7.9,3.9-14.9,9.2-20.8,15.6
			C188.6,341.2,184,335.1,184,328z M320,392c0-39.7-32.3-72-72-72c-5.7,0-11.3,0.7-16.6,2c-2.8-14.8-15.8-26-31.4-26
			c-17.6,0-32,14.4-32,32c0,12.4,7,23.2,17.4,28.5c-6,10.5-9.4,22.6-9.4,35.5c0,22.6,10.5,42.8,26.8,56H160V256h32v8
			c0,13.2,10.8,24,24,24h64c13.2,0,24-10.8,24-24v-8h32v192h-42.8C309.5,434.8,320,414.6,320,392z M192,240h-32v-16h32V240z
			 M144,296H16v-16h128V296z M339.4,176l-7.1-16h103.4l-7.1,16H339.4z M304,40c0-13.2,10.8-24,24-24h112c13.2,0,24,10.8,24,24v80
			c0,13.2-10.8,24-24,24H328c-13.2,0-24-10.8-24-24V40z M342.2,192h83.6v16h-83.6V192z M336,224v16h-32v-16h22.2H336z M208,216
			c0-4.4,3.6-8,8-8h64c4.4,0,8,3.6,8,8v48c0,4.4-3.6,8-8,8h-64c-4.4,0-8-3.6-8-8V216z M128,184v24h-16v-32h8
			C124.4,176,128,179.6,128,184z M80,208v-32h16v32H80z M48,184c0-4.4,3.6-8,8-8h8v32H48V184z M40,224h104v40H16v-16
			C16,234.8,26.8,224,40,224z M456,480H40c-10.4,0-19.2-6.7-22.5-16H32v-16H16V312h128v136H48v16h430.5
			C475.2,473.3,466.4,480,456,480z"/>
		<path class="st1" d="M384,104c17.9,0,32-10.5,32-24s-14.1-24-32-24s-32,10.5-32,24S366.1,104,384,104z M384,72c9.8,0,16,4.7,16,8
			s-6.2,8-16,8s-16-4.7-16-8S374.2,72,384,72z"/>
		<path class="st1" d="M248,352c-22.1,0-40,17.9-40,40s17.9,40,40,40s40-17.9,40-40S270.1,352,248,352z M248,416
			c-13.2,0-24-10.8-24-24s10.8-24,24-24c13.2,0,24,10.8,24,24S261.2,416,248,416z"/>
		<path class="st1" d="M248,264c17.9,0,32-10.5,32-24s-14.1-24-32-24s-32,10.5-32,24S230.1,264,248,264z M248,232c9.8,0,16,4.7,16,8
			s-6.2,8-16,8s-16-4.7-16-8S238.2,232,248,232z"/>
	</g>
	<g>
		<rect x="16" y="280" class="st0" width="128" height="16"/>
		<rect x="352" y="280" class="st0" width="128" height="16"/>
	</g>
</g>
</svg>
